:FULLY-SPECIFIED
:FORCE-ALL-JOINTS-BE-3DOF
:DEGREES
259
root 9.67026 16.5546 -0.265351 8.29134 -5.85445 -0.0469744
lfemur -34.3304 9.09913 -26.6364
ltibia 40.2088 0 0
lfoot -11.5842 5.20038 0
ltoes 5.31569 0 0
rfemur -3.70359 -1.24871 18.0198
rtibia 47.4146 0 0
rfoot 4.33115 -0.631296 0
rtoes -16.19 0 0
lowerback -5.29688 0.804643 -1.74236
upperback -2.34424 1.14876 1.65594
thorax 0.513576 0.580498 2.72888
lowerneck -20.4148 -5.07081 -12.8458
upperneck 19.4549 -6.23608 13.2415
head 10.4693 -2.34173 5.98564
lclavicle 1.77009e-14 2.37958e-14 0
lhumerus -36.5049 -7.1165 87.3801
lradius 20.2755 0 0
lwrist -4.88747 0 0
lhand -10.4139 -23.4665 0
lfingers 7.12502 0 0
lthumb 15.5844 5.91403 0
rclavicle 1.77009e-14 2.37958e-14 0
rhumerus -47.5422 8.90461 -86.6749
rradius 40.4892 0 0
rwrist -24.7782 0 0
rhand -29.6192 -25.2025 0
rfingers 7.12502 0 0
rthumb -2.94973 -55.1629 0
260
root 9.6926 16.5715 -0.139619 8.125 -5.74094 0.0672355
lfemur -33.4532 8.96685 -26.8026
ltibia 39.8801 0 0
lfoot -11.9642 5.235 0
ltoes 5.13306 0 0
rfemur -5.03871 -1.40226 18.0766
rtibia 48.4259 0 0
rfoot 3.1785 -1.21332 0
rtoes -16.1636 0 0
lowerback -5.24557 0.653351 -1.79834
upperback -2.23731 0.947487 1.67696
thorax 0.606811 0.477566 2.77082
lowerneck -20.5216 -4.9851 -12.7613
upperneck 19.6052 -6.1172 13.1399
head 10.5197 -2.28902 5.95748
lclavicle 1.5371e-14 2.347e-14 0
lhumerus -35.519 -7.34783 87.2636
lradius 20.3813 0 0
lwrist -4.76293 0 0
lhand -10.6212 -23.4932 0
lfingers 7.12502 0 0
lthumb 15.3846 5.9015 0
rclavicle 1.5371e-14 2.347e-14 0
rhumerus -47.4559 8.83724 -86.4791
rradius 40.5917 0 0
rwrist -24.71 0 0
rhand -29.5971 -24.9813 0
rfingers 7.12502 0 0
rthumb -2.9283 -54.9421 0
261
root 9.71453 16.5887 -0.015019 7.95445 -5.61825 0.179541
lfemur -32.5533 8.82086 -26.9586
ltibia 39.5179 0 0
lfoot -12.3591 5.27848 0
ltoes 4.92292 0 0
rfemur -6.40201 -1.5508 18.1444
rtibia 49.4186 0 0
rfoot 1.9733 -1.80773 0
rtoes -16.1324 0 0
lowerback -5.1959 0.498652 -1.85177
upperback -2.12593 0.741257 1.70055
thorax 0.706042 0.372083 2.81384
lowerneck -20.6264 -4.89804 -12.676
upperneck 19.7555 -5.99656 13.0371
head 10.5695 -2.2357 5.9291
lclavicle 1.29269e-14 2.31021e-14 0
lhumerus -34.5149 -7.59308 87.1523
lradius 20.4976 0 0
lwrist -4.62216 0 0
lhand -10.8375 -23.5272 0
lfingers 7.12502 0 0
lthumb 15.1762 5.88222 0
rclavicle 1.29269e-14 2.31021e-14 0
rhumerus -47.3595 8.77151 -86.2753
rradius 40.7071 0 0
rwrist -24.6403 0 0
rhand -29.5754 -24.7574 0
rfingers 7.12502 0 0
rthumb -2.90739 -54.7185 0
262
root 9.73603 16.6061 0.108618 7.78079 -5.48673 0.290065
lfemur -31.6326 8.66275 -27.1049
ltibia 39.124 0 0
lfoot -12.7657 5.32924 0
ltoes 4.68861 0 0
rfemur -7.78799 -1.69304 18.2206
rtibia 50.3885 0 0
rfoot 0.723422 -2.41211 0
rtoes -16.0974 0 0
lowerback -5.14817 0.3411 -1.90312
upperback -2.01094 0.530891 1.72636
thorax 0.810564 0.264465 2.85781
lowerneck -20.729 -4.81016 -12.5905
upperneck 19.9053 -5.87489 12.9336
head 10.6186 -2.18209 5.90059
lclavicle 1.03821e-14 2.26981e-14 0
lhumerus -33.497 -7.85234 87.0465
lradius 20.6242 0 0
lwrist -4.46569 0 0
lhand -11.0609 -23.5676 0
lfingers 7.12502 0 0
lthumb 14.9609 5.85714 0
rclavicle 1.03821e-14 2.26981e-14 0
rhumerus -47.2547 8.7072 -86.065
rradius 40.833 0 0
rwrist -24.569 0 0
rhand -29.5541 -24.5321 0
rfingers 7.12502 0 0
rthumb -2.88678 -54.4935 0
263
root 9.75707 16.6236 0.23146 7.60516 -5.3467 0.398932
lfemur -30.6935 8.4941 -27.2419
ltibia 38.7002 0 0
lfoot -13.1812 5.3857 0
ltoes 4.43349 0 0
rfemur -9.19114 -1.82767 18.3023
rtibia 51.3314 0 0
rfoot -0.563259 -3.02407 0
rtoes -16.0596 0 0
lowerback -5.10265 0.181244 -1.9528
upperback -1.89312 0.317207 1.75404
thorax 0.919671 0.155126 2.90264
lowerneck -20.8289 -4.72196 -12.5051
upperneck 20.0541 -5.75289 12.8299
head 10.6669 -2.12849 5.87208
lclavicle 7.74983e-15 2.22638e-14 0
lhumerus -32.4695 -8.12569 86.9464
lradius 20.7613 0 0
lwrist -4.29407 0 0
lhand -11.2896 -23.6131 0
lfingers 7.12502 0 0
lthumb 14.7405 5.82723 0
rclavicle 7.74983e-15 2.22638e-14 0
rhumerus -47.1429 8.64407 -85.8494
rradius 40.9667 0 0
rwrist -24.4957 0 0
rhand -29.5328 -24.3066 0
rfingers 7.12502 0 0
rthumb -2.86624 -54.2684 0
264
root 9.77762 16.6412 0.353675 7.42868 -5.19852 0.506266
lfemur -29.7379 8.31649 -27.37
ltibia 38.2481 0 0
lfoot -13.6024 5.44629 0
ltoes 4.16091 0 0
rfemur -10.6059 -1.95342 18.387
rtibia 52.2431 0 0
rfoot -1.87887 -3.64123 0
rtoes -16.0201 0 0
lowerback -5.05964 0.0196377 -2.00129
upperback -1.7733 0.10102 1.78324
thorax 1.03266 0.0444812 2.94821
lowerneck -20.9258 -4.63396 -12.4204
upperneck 20.2015 -5.63129 12.7265
head 10.7143 -2.07522 5.84368
lclavicle 5.04356e-15 2.18049e-14 0
lhumerus -31.4368 -8.41323 86.8524
lradius 20.9087 0 0
lwrist -4.10782 0 0
lhand -11.5217 -23.6627 0
lfingers 7.12502 0 0
lthumb 14.5169 5.79344 0
rclavicle 5.04356e-15 2.18049e-14 0
rhumerus -47.0259 8.58189 -85.6299
rradius 41.1058 0 0
rwrist -24.4205 0 0
rhand -29.5114 -24.0823 0
rfingers 7.12502 0 0
rthumb -2.84555 -54.0445 0
